M48
; DRILL file {KiCad 8.0.8} date 2025-02-13T18:12:52+1300
; FORMAT={-:-/ absolute / metric / decimal}
; #@! TF.CreationDate,2025-02-13T18:12:52+13:00
; #@! TF.GenerationSoftware,Kicad,Pcbnew,8.0.8
; #@! TF.FileFunction,Plated,1,4,PTH
FMAT,2
METRIC
; #@! TA.AperFunction,Plated,PTH,ViaDrill
T1C0.300
; #@! TA.AperFunction,Plated,PTH,ComponentDrill
T2C0.400
; #@! TA.AperFunction,Plated,PTH,ComponentDrill
T3C0.600
; #@! TA.AperFunction,Plated,PTH,ComponentDrill
T4C0.762
; #@! TA.AperFunction,Plated,PTH,ComponentDrill
T5C0.800
; #@! TA.AperFunction,Plated,PTH,ComponentDrill
T6C0.900
; #@! TA.AperFunction,Plated,PTH,ComponentDrill
T7C1.000
; #@! TA.AperFunction,Plated,PTH,ComponentDrill
T8C1.100
; #@! TA.AperFunction,Plated,PTH,ComponentDrill
T9C1.500
%
G90
G05
T1
X76.0Y-66.4
X76.3Y-65.2
X78.05Y-81.8
X78.6Y-67.9
X78.937Y-63.563
X80.954Y-59.393
X81.605Y-65.675
X81.605Y-66.325
X81.8Y-61.6
X83.07Y-79.13
X83.2Y-81.2
X83.53Y-78.67
X83.958Y-81.342
X87.8Y-58.0
X88.1Y-66.2
X88.6Y-67.5
X90.1Y-60.1
X90.2Y-71.5
X94.2Y-59.9
X96.1Y-50.8
X96.5Y-73.9
X97.0Y-54.9
X102.2Y-49.35
X106.031Y-54.671
X106.699Y-58.56
X107.0Y-80.85
X107.275Y-57.202
X107.621Y-87.855
X107.954Y-56.953
X108.423Y-95.47
X108.441Y-66.097
X108.755Y-56.345
X108.8Y-71.3
X108.995Y-66.484
X110.655Y-82.843
X111.311Y-62.37
X111.375Y-52.475
X111.686Y-59.99
X111.75Y-82.1
X111.79Y-65.576
X111.886Y-61.647
X112.42Y-66.575
X112.575Y-73.925
X112.75Y-54.6
X113.7Y-64.1
X114.0Y-49.55
X114.2Y-70.862
X114.243Y-60.033
X114.7Y-67.4
X114.87Y-81.374
X114.919Y-58.277
X115.2Y-72.3
X115.6Y-78.1
X116.047Y-62.898
X116.525Y-84.862
X117.5Y-78.85
X119.0Y-56.7
X120.142Y-60.51
X120.7Y-54.7
X121.55Y-58.25
X126.294Y-57.959
X127.78Y-58.461
X129.6Y-68.5
X144.0Y-63.95
X146.29Y-58.111
X146.4Y-55.5
X147.633Y-60.287
X147.633Y-64.694
X150.725Y-62.175
X152.774Y-65.939
X155.0Y-49.7
X155.0Y-56.3
X155.433Y-48.176
X155.577Y-55.806
X157.4Y-49.1
X158.3Y-57.0
X159.4Y-46.9
X160.296Y-63.025
X161.6Y-60.5
X162.368Y-62.857
T2
X102.2Y-63.25
X102.2Y-64.65
X103.6Y-63.25
X103.6Y-64.65
T4
X86.0Y-63.1
X86.0Y-69.1
X89.2Y-63.1
X89.2Y-69.1
X141.0Y-44.85
X147.0Y-44.85
T5
X86.582Y-52.9
X89.082Y-52.9
X94.34Y-75.98
X94.34Y-83.6
X96.88Y-75.98
X96.88Y-83.6
X99.42Y-75.98
X99.42Y-83.6
X101.96Y-75.98
X101.96Y-83.6
X104.5Y-75.98
X104.5Y-83.6
X107.04Y-75.98
X107.04Y-83.6
X109.58Y-75.98
X109.58Y-83.6
X128.6Y-47.2
X128.6Y-49.7
X128.6Y-54.382
X128.6Y-56.882
X136.0Y-44.77
X136.0Y-54.93
X138.92Y-48.6
X138.92Y-51.85
X149.08Y-48.6
X149.08Y-51.85
T6
X73.17Y-72.6
X83.33Y-72.6
X83.72Y-46.5
X93.88Y-46.5
T7
X73.5Y-87.85
X73.5Y-90.39
X73.5Y-92.93
X73.5Y-95.47
X125.25Y-63.55
X125.25Y-66.09
X125.25Y-68.63
X125.25Y-71.17
X125.55Y-82.775
X125.55Y-85.315
X125.55Y-87.855
X125.55Y-90.395
X125.55Y-92.935
X125.55Y-95.475
X125.55Y-98.015
X125.55Y-100.555
X166.525Y-54.1
X166.525Y-56.64
X166.525Y-59.18
T8
X117.12Y-51.1
X119.66Y-51.1
X122.2Y-51.1
T9
X139.94Y-78.31
X139.94Y-97.81
X146.29Y-75.77
X146.29Y-95.27
X159.48Y-78.31
X159.48Y-97.81
X165.83Y-75.77
X165.83Y-95.27
T3
G00X73.0Y-61.1
M15
G01X72.2Y-61.1
M16
G05
G00X73.0Y-69.74
M15
G01X72.2Y-69.74
M16
G05
G00X77.35Y-61.1
M15
G01X76.25Y-61.1
M16
G05
G00X77.35Y-69.74
M15
G01X76.25Y-69.74
M16
G05
T7
G00X75.0Y-50.942
M15
G01X75.0Y-52.942
M16
G05
G00X77.0Y-56.642
M15
G01X79.0Y-56.642
M16
G05
G00X81.0Y-50.942
M15
G01X81.0Y-52.942
M16
G05
M30
