%TF.GenerationSoftware,KiCad,Pcbnew,8.0.8*%
%TF.CreationDate,2025-02-13T18:12:52+13:00*%
%TF.ProjectId,Intelliwatch-Mk-II,496e7465-6c6c-4697-9761-7463682d4d6b,1.?*%
%TF.SameCoordinates,Original*%
%TF.FileFunction,Soldermask,Bot*%
%TF.FilePolarity,Negative*%
%FSLAX46Y46*%
G04 Gerber Fmt 4.6, Leading zero omitted, Abs format (unit mm)*
G04 Created by KiCad (PCBNEW 8.0.8) date 2025-02-13 18:12:52*
%MOMM*%
%LPD*%
G01*
G04 APERTURE LIST*
G04 Aperture macros list*
%AMRoundRect*
0 Rectangle with rounded corners*
0 $1 Rounding radius*
0 $2 $3 $4 $5 $6 $7 $8 $9 X,Y pos of 4 corners*
0 Add a 4 corners polygon primitive as box body*
4,1,4,$2,$3,$4,$5,$6,$7,$8,$9,$2,$3,0*
0 Add four circle primitives for the rounded corners*
1,1,$1+$1,$2,$3*
1,1,$1+$1,$4,$5*
1,1,$1+$1,$6,$7*
1,1,$1+$1,$8,$9*
0 Add four rect primitives between the rounded corners*
20,1,$1+$1,$2,$3,$4,$5,0*
20,1,$1+$1,$4,$5,$6,$7,0*
20,1,$1+$1,$6,$7,$8,$9,0*
20,1,$1+$1,$8,$9,$2,$3,0*%
G04 Aperture macros list end*
%ADD10R,1.700000X1.700000*%
%ADD11O,1.700000X1.700000*%
%ADD12C,4.000000*%
%ADD13C,2.200000*%
%ADD14R,1.600000X1.600000*%
%ADD15C,1.600000*%
%ADD16R,1.905000X2.000000*%
%ADD17O,1.905000X2.000000*%
%ADD18R,1.800000X1.800000*%
%ADD19O,1.800000X1.800000*%
%ADD20O,1.600000X1.600000*%
%ADD21C,1.524000*%
%ADD22C,0.650000*%
%ADD23O,2.100000X1.000000*%
%ADD24O,1.800000X1.000000*%
%ADD25R,3.500000X3.500000*%
%ADD26RoundRect,0.750000X-0.750000X-1.000000X0.750000X-1.000000X0.750000X1.000000X-0.750000X1.000000X0*%
%ADD27RoundRect,0.875000X-0.875000X-0.875000X0.875000X-0.875000X0.875000X0.875000X-0.875000X0.875000X0*%
%ADD28C,0.800000*%
G04 APERTURE END LIST*
D10*
%TO.C,J6*%
X125250000Y-63550000D03*
D11*
X125250000Y-66090000D03*
X125250000Y-68630000D03*
X125250000Y-71170000D03*
%TD*%
D12*
%TO.C,SW6*%
X143750000Y-100350000D03*
D13*
X146290000Y-95270000D03*
X139940000Y-97810000D03*
%TD*%
D14*
%TO.C,C11*%
X128600000Y-49700000D03*
D15*
X128600000Y-47200000D03*
%TD*%
D16*
%TO.C,U3*%
X122200000Y-51100000D03*
D17*
X119660000Y-51100000D03*
X117120000Y-51100000D03*
%TD*%
D12*
%TO.C,SW5*%
X163290000Y-80850000D03*
D13*
X165830000Y-75770000D03*
X159480000Y-78310000D03*
%TD*%
D18*
%TO.C,D4*%
X93880000Y-46500000D03*
D19*
X83720000Y-46500000D03*
%TD*%
D10*
%TO.C,J4*%
X166525000Y-54100000D03*
D11*
X166525000Y-56640000D03*
X166525000Y-59180000D03*
%TD*%
D12*
%TO.C,SW7*%
X163290000Y-100350000D03*
D13*
X165830000Y-95270000D03*
X159480000Y-97810000D03*
%TD*%
D14*
%TO.C,C6*%
X128600000Y-56882400D03*
D15*
X128600000Y-54382400D03*
%TD*%
D18*
%TO.C,D7*%
X83330000Y-72600000D03*
D19*
X73170000Y-72600000D03*
%TD*%
D14*
%TO.C,U1*%
X109580000Y-75980000D03*
D20*
X107040000Y-75980000D03*
X104500000Y-75980000D03*
X101960000Y-75980000D03*
X99420000Y-75980000D03*
X96880000Y-75980000D03*
X94340000Y-75980000D03*
X94340000Y-83600000D03*
X96880000Y-83600000D03*
X99420000Y-83600000D03*
X101960000Y-83600000D03*
X104500000Y-83600000D03*
X107040000Y-83600000D03*
X109580000Y-83600000D03*
%TD*%
D21*
%TO.C,SW3*%
X89200000Y-63100000D03*
X89200000Y-69100000D03*
%TD*%
D22*
%TO.C,J3*%
X76280000Y-62530000D03*
X76280000Y-68310000D03*
D23*
X76800000Y-61100000D03*
D24*
X72600000Y-61100000D03*
D23*
X76800000Y-69740000D03*
D24*
X72600000Y-69740000D03*
%TD*%
D10*
%TO.C,J5*%
X125550000Y-82775000D03*
D11*
X125550000Y-85315000D03*
X125550000Y-87855000D03*
X125550000Y-90395000D03*
X125550000Y-92935000D03*
X125550000Y-95475000D03*
X125550000Y-98015000D03*
X125550000Y-100555000D03*
D10*
X73500000Y-87850000D03*
D11*
X73500000Y-90390000D03*
X73500000Y-92930000D03*
X73500000Y-95470000D03*
%TD*%
D15*
%TO.C,R1*%
X136000000Y-54930000D03*
D20*
X136000000Y-44770000D03*
%TD*%
D25*
%TO.C,J2*%
X81000000Y-51942500D03*
D26*
X75000000Y-51942500D03*
D27*
X78000000Y-56642500D03*
%TD*%
D21*
%TO.C,J1*%
X141000000Y-44850000D03*
X147000000Y-44850000D03*
%TD*%
D14*
%TO.C,C1*%
X89082400Y-52900000D03*
D15*
X86582400Y-52900000D03*
%TD*%
D12*
%TO.C,SW4*%
X143750000Y-80850000D03*
D13*
X146290000Y-75770000D03*
X139940000Y-78310000D03*
%TD*%
D28*
%TO.C,U9*%
X103600000Y-64650000D03*
X103600000Y-63250000D03*
X102200000Y-64650000D03*
X102200000Y-63250000D03*
%TD*%
D15*
%TO.C,R2*%
X138920000Y-48600000D03*
D20*
X149080000Y-48600000D03*
%TD*%
D15*
%TO.C,R3*%
X138920000Y-51850000D03*
D20*
X149080000Y-51850000D03*
%TD*%
D21*
%TO.C,SW1*%
X86000000Y-63100000D03*
X86000000Y-69100000D03*
%TD*%
M02*
