%TF.GenerationSoftware,KiCad,Pcbnew,8.0.8*%
%TF.CreationDate,2025-02-13T18:12:52+13:00*%
%TF.ProjectId,Intelliwatch-Mk-II,496e7465-6c6c-4697-9761-7463682d4d6b,1.?*%
%TF.SameCoordinates,Original*%
%TF.FileFunction,Legend,Bot*%
%TF.FilePolarity,Positive*%
%FSLAX46Y46*%
G04 Gerber Fmt 4.6, Leading zero omitted, Abs format (unit mm)*
G04 Created by KiCad (PCBNEW 8.0.8) date 2025-02-13 18:12:52*
%MOMM*%
%LPD*%
G01*
G04 APERTURE LIST*
%ADD10C,0.350000*%
%ADD11O,1.700000X0.600000*%
%ADD12O,1.400000X0.600000*%
%ADD13O,1.000000X3.000000*%
%ADD14O,3.000000X1.000000*%
G04 APERTURE END LIST*
D10*
X125250000Y-63550000D03*
X125250000Y-66090000D03*
X125250000Y-68630000D03*
X125250000Y-71170000D03*
X143750000Y-100350000D03*
X146290000Y-95270000D03*
X139940000Y-97810000D03*
X128600000Y-49700000D03*
X128600000Y-47200000D03*
X122200000Y-51100000D03*
X119660000Y-51100000D03*
X117120000Y-51100000D03*
X163290000Y-80850000D03*
X165830000Y-75770000D03*
X159480000Y-78310000D03*
X93880000Y-46500000D03*
X83720000Y-46500000D03*
X166525000Y-54100000D03*
X166525000Y-56640000D03*
X166525000Y-59180000D03*
X163290000Y-100350000D03*
X165830000Y-95270000D03*
X159480000Y-97810000D03*
X128600000Y-56882400D03*
X128600000Y-54382400D03*
X83330000Y-72600000D03*
X73170000Y-72600000D03*
X109580000Y-75980000D03*
X107040000Y-75980000D03*
X104500000Y-75980000D03*
X101960000Y-75980000D03*
X99420000Y-75980000D03*
X96880000Y-75980000D03*
X94340000Y-75980000D03*
X94340000Y-83600000D03*
X96880000Y-83600000D03*
X99420000Y-83600000D03*
X101960000Y-83600000D03*
X104500000Y-83600000D03*
X107040000Y-83600000D03*
X109580000Y-83600000D03*
X89200000Y-63100000D03*
X89200000Y-69100000D03*
X76280000Y-62530000D03*
X76280000Y-68310000D03*
D11*
X76800000Y-61100000D03*
D12*
X72600000Y-61100000D03*
D11*
X76800000Y-69740000D03*
D12*
X72600000Y-69740000D03*
D10*
X125550000Y-82775000D03*
X125550000Y-85315000D03*
X125550000Y-87855000D03*
X125550000Y-90395000D03*
X125550000Y-92935000D03*
X125550000Y-95475000D03*
X125550000Y-98015000D03*
X125550000Y-100555000D03*
X73500000Y-87850000D03*
X73500000Y-90390000D03*
X73500000Y-92930000D03*
X73500000Y-95470000D03*
X136000000Y-54930000D03*
X136000000Y-44770000D03*
D13*
X81000000Y-51942500D03*
X75000000Y-51942500D03*
D14*
X78000000Y-56642500D03*
D10*
X141000000Y-44850000D03*
X147000000Y-44850000D03*
X89082400Y-52900000D03*
X86582400Y-52900000D03*
X143750000Y-80850000D03*
X146290000Y-75770000D03*
X139940000Y-78310000D03*
X103600000Y-64650000D03*
X103600000Y-63250000D03*
X102200000Y-64650000D03*
X102200000Y-63250000D03*
X138920000Y-48600000D03*
X149080000Y-48600000D03*
X138920000Y-51850000D03*
X149080000Y-51850000D03*
X86000000Y-63100000D03*
X86000000Y-69100000D03*
M02*
