%TF.GenerationSoftware,KiCad,Pcbnew,8.0.8*%
%TF.CreationDate,2025-02-13T18:12:52+13:00*%
%TF.ProjectId,Intelliwatch-Mk-II,496e7465-6c6c-4697-9761-7463682d4d6b,1.?*%
%TF.SameCoordinates,Original*%
%TF.FileFunction,Paste,Top*%
%TF.FilePolarity,Positive*%
%FSLAX46Y46*%
G04 Gerber Fmt 4.6, Leading zero omitted, Abs format (unit mm)*
G04 Created by KiCad (PCBNEW 8.0.8) date 2025-02-13 18:12:52*
%MOMM*%
%LPD*%
G01*
G04 APERTURE LIST*
G04 Aperture macros list*
%AMRoundRect*
0 Rectangle with rounded corners*
0 $1 Rounding radius*
0 $2 $3 $4 $5 $6 $7 $8 $9 X,Y pos of 4 corners*
0 Add a 4 corners polygon primitive as box body*
4,1,4,$2,$3,$4,$5,$6,$7,$8,$9,$2,$3,0*
0 Add four circle primitives for the rounded corners*
1,1,$1+$1,$2,$3*
1,1,$1+$1,$4,$5*
1,1,$1+$1,$6,$7*
1,1,$1+$1,$8,$9*
0 Add four rect primitives between the rounded corners*
20,1,$1+$1,$2,$3,$4,$5,0*
20,1,$1+$1,$4,$5,$6,$7,0*
20,1,$1+$1,$6,$7,$8,$9,0*
20,1,$1+$1,$8,$9,$2,$3,0*%
G04 Aperture macros list end*
%ADD10RoundRect,0.200000X-0.200000X-0.275000X0.200000X-0.275000X0.200000X0.275000X-0.200000X0.275000X0*%
%ADD11R,0.660400X1.422400*%
%ADD12RoundRect,0.250000X-0.475000X0.250000X-0.475000X-0.250000X0.475000X-0.250000X0.475000X0.250000X0*%
%ADD13RoundRect,0.200000X0.200000X0.275000X-0.200000X0.275000X-0.200000X-0.275000X0.200000X-0.275000X0*%
%ADD14RoundRect,0.218750X-0.256250X0.218750X-0.256250X-0.218750X0.256250X-0.218750X0.256250X0.218750X0*%
%ADD15RoundRect,0.225000X-0.225000X-0.250000X0.225000X-0.250000X0.225000X0.250000X-0.225000X0.250000X0*%
%ADD16RoundRect,0.112500X0.112500X-0.187500X0.112500X0.187500X-0.112500X0.187500X-0.112500X-0.187500X0*%
%ADD17RoundRect,0.200000X0.275000X-0.200000X0.275000X0.200000X-0.275000X0.200000X-0.275000X-0.200000X0*%
%ADD18RoundRect,0.200000X-0.275000X0.200000X-0.275000X-0.200000X0.275000X-0.200000X0.275000X0.200000X0*%
%ADD19RoundRect,0.250000X-0.325000X-0.650000X0.325000X-0.650000X0.325000X0.650000X-0.325000X0.650000X0*%
%ADD20RoundRect,0.150000X-0.512500X-0.150000X0.512500X-0.150000X0.512500X0.150000X-0.512500X0.150000X0*%
%ADD21RoundRect,0.112500X0.187500X0.112500X-0.187500X0.112500X-0.187500X-0.112500X0.187500X-0.112500X0*%
%ADD22RoundRect,0.112500X-0.187500X-0.112500X0.187500X-0.112500X0.187500X0.112500X-0.187500X0.112500X0*%
%ADD23RoundRect,0.162500X-0.367500X-0.162500X0.367500X-0.162500X0.367500X0.162500X-0.367500X0.162500X0*%
%ADD24R,1.500000X2.200000*%
%ADD25RoundRect,0.100000X-0.650000X-0.100000X0.650000X-0.100000X0.650000X0.100000X-0.650000X0.100000X0*%
%ADD26RoundRect,0.112500X-0.112500X0.187500X-0.112500X-0.187500X0.112500X-0.187500X0.112500X0.187500X0*%
%ADD27RoundRect,0.250000X-0.450000X-0.250000X0.450000X-0.250000X0.450000X0.250000X-0.450000X0.250000X0*%
%ADD28R,1.240000X0.600000*%
%ADD29R,1.240000X0.300000*%
%ADD30RoundRect,0.250000X0.650000X-0.325000X0.650000X0.325000X-0.650000X0.325000X-0.650000X-0.325000X0*%
%ADD31RoundRect,0.218750X-0.218750X-0.256250X0.218750X-0.256250X0.218750X0.256250X-0.218750X0.256250X0*%
%ADD32R,0.450000X0.300000*%
%ADD33R,0.300000X0.450000*%
%ADD34RoundRect,0.150000X0.150000X-0.650000X0.150000X0.650000X-0.150000X0.650000X-0.150000X-0.650000X0*%
%ADD35R,1.500000X0.900000*%
%ADD36R,0.900000X1.500000*%
%ADD37R,0.900000X0.900000*%
%ADD38RoundRect,0.250000X-0.650000X0.325000X-0.650000X-0.325000X0.650000X-0.325000X0.650000X0.325000X0*%
G04 APERTURE END LIST*
D10*
%TO.C,R4*%
X80175000Y-60600000D03*
X81825000Y-60600000D03*
%TD*%
D11*
%TO.C,SW8*%
X117750000Y-67850000D03*
X117750000Y-75139800D03*
%TD*%
D12*
%TO.C,C3*%
X93600000Y-49550000D03*
X93600000Y-51450000D03*
%TD*%
%TO.C,C9*%
X163150000Y-49200000D03*
X163150000Y-51100000D03*
%TD*%
D10*
%TO.C,R5*%
X80175000Y-62600000D03*
X81825000Y-62600000D03*
%TD*%
D13*
%TO.C,R9*%
X119825000Y-45100000D03*
X118175000Y-45100000D03*
%TD*%
D14*
%TO.C,D11*%
X139250000Y-60562500D03*
X139250000Y-62137500D03*
%TD*%
D15*
%TO.C,C7*%
X120025000Y-57100000D03*
X121575000Y-57100000D03*
%TD*%
D16*
%TO.C,D1*%
X87800000Y-60900000D03*
X87800000Y-58800000D03*
%TD*%
D17*
%TO.C,R13*%
X163050000Y-62175000D03*
X163050000Y-60525000D03*
%TD*%
D18*
%TO.C,R12*%
X112750000Y-62500000D03*
X112750000Y-64150000D03*
%TD*%
D19*
%TO.C,C8*%
X98525000Y-45900000D03*
X101475000Y-45900000D03*
%TD*%
D18*
%TO.C,R23*%
X128050000Y-65850000D03*
X128050000Y-67500000D03*
%TD*%
D20*
%TO.C,U7*%
X98462500Y-48350000D03*
X98462500Y-49300000D03*
X98462500Y-50250000D03*
X100737500Y-50250000D03*
X100737500Y-49300000D03*
X100737500Y-48350000D03*
%TD*%
D14*
%TO.C,D8*%
X159650000Y-60562500D03*
X159650000Y-62137500D03*
%TD*%
D17*
%TO.C,R16*%
X142650000Y-61975000D03*
X142650000Y-60325000D03*
%TD*%
%TO.C,R22*%
X128050000Y-71175000D03*
X128050000Y-69525000D03*
%TD*%
D21*
%TO.C,D3*%
X140500000Y-54850000D03*
X138400000Y-54850000D03*
%TD*%
D17*
%TO.C,R15*%
X149450000Y-62175000D03*
X149450000Y-60525000D03*
%TD*%
D22*
%TO.C,D5*%
X79974900Y-64600000D03*
X82074900Y-64600000D03*
%TD*%
D23*
%TO.C,U2*%
X142650000Y-54650000D03*
X142650000Y-55600000D03*
X142650000Y-56550000D03*
X144850000Y-56550000D03*
X144850000Y-55600000D03*
X144850000Y-54650000D03*
%TD*%
D11*
%TO.C,SW2*%
X117750000Y-57810200D03*
X117750000Y-65100000D03*
%TD*%
D24*
%TO.C,L1*%
X103800000Y-48100000D03*
X110200000Y-48100000D03*
%TD*%
D18*
%TO.C,R11*%
X112750000Y-59250000D03*
X112750000Y-60900000D03*
%TD*%
D10*
%TO.C,R8*%
X118175000Y-46900000D03*
X119825000Y-46900000D03*
%TD*%
D25*
%TO.C,U4*%
X113170000Y-77450000D03*
X113170000Y-78100000D03*
X113170000Y-78750000D03*
X115830000Y-78750000D03*
X115830000Y-77450000D03*
%TD*%
D26*
%TO.C,D6*%
X82274900Y-66430000D03*
X82274900Y-68530000D03*
%TD*%
D27*
%TO.C,Q1*%
X159500000Y-55100000D03*
X159500000Y-57000000D03*
X161700000Y-56050000D03*
%TD*%
D15*
%TO.C,C10*%
X118225000Y-48700000D03*
X119775000Y-48700000D03*
%TD*%
D28*
%TO.C,J3*%
X77400000Y-62220000D03*
X77400000Y-63020000D03*
D29*
X77400000Y-64170000D03*
X77400000Y-65170000D03*
X77400000Y-65670000D03*
X77400000Y-66670000D03*
D28*
X77400000Y-67820000D03*
X77400000Y-68620000D03*
X77400000Y-68620000D03*
X77400000Y-67820000D03*
D29*
X77400000Y-67170000D03*
X77400000Y-66170000D03*
X77400000Y-64670000D03*
X77400000Y-63670000D03*
D28*
X77400000Y-63020000D03*
X77400000Y-62220000D03*
%TD*%
D14*
%TO.C,D10*%
X146050000Y-60562500D03*
X146050000Y-62137500D03*
%TD*%
D18*
%TO.C,R10*%
X112750000Y-56000000D03*
X112750000Y-57650000D03*
%TD*%
D10*
%TO.C,R20*%
X138425000Y-63950000D03*
X140075000Y-63950000D03*
%TD*%
D13*
%TO.C,R17*%
X160475000Y-63950000D03*
X158825000Y-63950000D03*
%TD*%
D12*
%TO.C,C12*%
X112400000Y-49550000D03*
X112400000Y-51450000D03*
%TD*%
D30*
%TO.C,C4*%
X79500000Y-78575000D03*
X79500000Y-75625000D03*
%TD*%
D15*
%TO.C,C2*%
X120025000Y-55500000D03*
X121575000Y-55500000D03*
%TD*%
D13*
%TO.C,R24*%
X153825000Y-56312500D03*
X152175000Y-56312500D03*
%TD*%
D25*
%TO.C,U5*%
X113170000Y-80820000D03*
X113170000Y-81470000D03*
X113170000Y-82120000D03*
X115830000Y-82120000D03*
X115830000Y-80820000D03*
%TD*%
D13*
%TO.C,R19*%
X146875000Y-63950000D03*
X145225000Y-63950000D03*
%TD*%
D31*
%TO.C,D12*%
X148962500Y-56312500D03*
X150537500Y-56312500D03*
%TD*%
D30*
%TO.C,C13*%
X160750000Y-51825000D03*
X160750000Y-48875000D03*
%TD*%
D15*
%TO.C,C14*%
X112725000Y-72250000D03*
X114275000Y-72250000D03*
%TD*%
D32*
%TO.C,U8*%
X155975000Y-48600000D03*
X155975000Y-49100000D03*
X155975000Y-49600000D03*
X155975000Y-50100000D03*
D33*
X156500000Y-50625000D03*
X157000000Y-50625000D03*
X157500000Y-50625000D03*
X158000000Y-50625000D03*
D32*
X158525000Y-50100000D03*
X158525000Y-49600000D03*
X158525000Y-49100000D03*
X158525000Y-48600000D03*
D33*
X158000000Y-48075000D03*
X157500000Y-48075000D03*
X157000000Y-48075000D03*
X156500000Y-48075000D03*
%TD*%
D34*
%TO.C,U6*%
X81955000Y-82550000D03*
X83225000Y-82550000D03*
X84495000Y-82550000D03*
X85765000Y-82550000D03*
X87035000Y-82550000D03*
X88305000Y-82550000D03*
X89575000Y-82550000D03*
X90845000Y-82550000D03*
X90845000Y-76050000D03*
X89575000Y-76050000D03*
X88305000Y-76050000D03*
X87035000Y-76050000D03*
X85765000Y-76050000D03*
X84495000Y-76050000D03*
X83225000Y-76050000D03*
X81955000Y-76050000D03*
%TD*%
D14*
%TO.C,D9*%
X152850000Y-60562500D03*
X152850000Y-62137500D03*
%TD*%
D26*
%TO.C,D2*%
X80024900Y-66430000D03*
X80024900Y-68530000D03*
%TD*%
D17*
%TO.C,R21*%
X112750000Y-70625000D03*
X112750000Y-68975000D03*
%TD*%
D35*
%TO.C,U9*%
X110150000Y-71260000D03*
X110150000Y-69990000D03*
X110150000Y-68720000D03*
X110150000Y-67450000D03*
X110150000Y-66180000D03*
X110150000Y-64910000D03*
X110150000Y-63640000D03*
X110150000Y-62370000D03*
X110150000Y-61100000D03*
X110150000Y-59830000D03*
X110150000Y-58560000D03*
X110150000Y-57290000D03*
X110150000Y-56020000D03*
X110150000Y-54750000D03*
D36*
X107115000Y-53500000D03*
X105845000Y-53500000D03*
X104575000Y-53500000D03*
X103305000Y-53500000D03*
X102035000Y-53500000D03*
X100765000Y-53500000D03*
X99495000Y-53500000D03*
X98225000Y-53500000D03*
X96955000Y-53500000D03*
X95685000Y-53500000D03*
D35*
X92650000Y-54750000D03*
X92650000Y-56020000D03*
X92650000Y-57290000D03*
X92650000Y-58560000D03*
X92650000Y-59830000D03*
X92650000Y-61100000D03*
X92650000Y-62370000D03*
X92650000Y-63640000D03*
X92650000Y-64910000D03*
X92650000Y-66180000D03*
X92650000Y-67450000D03*
X92650000Y-68720000D03*
X92650000Y-69990000D03*
X92650000Y-71260000D03*
D37*
X104300000Y-65320000D03*
X104300000Y-63920000D03*
X104300000Y-62520000D03*
X102900000Y-65320000D03*
X102900000Y-63920000D03*
X102900000Y-62520000D03*
X101500000Y-65320000D03*
X101500000Y-63920000D03*
X101500000Y-62520000D03*
%TD*%
D18*
%TO.C,R6*%
X112750000Y-65750000D03*
X112750000Y-67400000D03*
%TD*%
D38*
%TO.C,C5*%
X79500000Y-80375000D03*
X79500000Y-83325000D03*
%TD*%
D17*
%TO.C,R14*%
X156450000Y-62175000D03*
X156450000Y-60525000D03*
%TD*%
%TO.C,R7*%
X90100000Y-58825000D03*
X90100000Y-57175000D03*
%TD*%
D13*
%TO.C,R18*%
X153675000Y-63950000D03*
X152025000Y-63950000D03*
%TD*%
M02*
