M48
METRIC,TZ
T1C0.300
T2C0.400
T3C0.600
T4C0.762
T5C0.800
T6C0.900
T7C1.000
T8C1.100
T9C1.500
%
G90
G05
T1
X76000Y-66400
X76300Y-65200
X78050Y-81800
X78600Y-67900
X78937Y-63563
X80955Y-59393
X81605Y-65675
X81605Y-66325
X81800Y-61600
X83070Y-79130
X83200Y-81200
X83530Y-78670
X83958Y-81342
X87800Y-58000
X88100Y-66200
X88600Y-67500
X90100Y-60100
X90200Y-71500
X94200Y-59900
X96100Y-50800
X96500Y-73900
X97000Y-54900
X102200Y-49350
X106031Y-54671
X106699Y-58560
X107000Y-80850
X107275Y-57202
X107621Y-87855
X107954Y-56953
X108423Y-95470
X108441Y-66097
X108755Y-56345
X108800Y-71300
X108995Y-66484
X110655Y-82843
X111311Y-62370
X111375Y-52475
X111686Y-59990
X111750Y-82100
X111791Y-65576
X111886Y-61647
X112420Y-66575
X112575Y-73925
X112750Y-54600
X113700Y-64100
X114000Y-49550
X114200Y-70862
X114243Y-60033
X114700Y-67400
X114870Y-81374
X114919Y-58278
X115200Y-72300
X115600Y-78100
X116047Y-62898
X116525Y-84862
X117500Y-78850
X119000Y-56700
X120142Y-60510
X120700Y-54700
X121550Y-58250
X126294Y-57959
X127780Y-58461
X129600Y-68500
X144000Y-63950
X146290Y-58111
X146400Y-55500
X147633Y-60287
X147633Y-64694
X150725Y-62175
X152774Y-65939
X155000Y-49700
X155000Y-56300
X155433Y-48176
X155577Y-55806
X157400Y-49100
X158300Y-57000
X159400Y-46900
X160296Y-63025
X161600Y-60500
X162368Y-62857
T2
X102200Y-63250
X102200Y-64650
X103600Y-63250
X103600Y-64650
T4
X86000Y-63100
X86000Y-69100
X89200Y-63100
X89200Y-69100
X141000Y-44850
X147000Y-44850
T5
X86582Y-52900
X89082Y-52900
X94340Y-75980
X94340Y-83600
X96880Y-75980
X96880Y-83600
X99420Y-75980
X99420Y-83600
X101960Y-75980
X101960Y-83600
X104500Y-75980
X104500Y-83600
X107040Y-75980
X107040Y-83600
X109580Y-75980
X109580Y-83600
X128600Y-47200
X128600Y-49700
X128600Y-54382
X128600Y-56882
X136000Y-44770
X136000Y-54930
X138920Y-48600
X138920Y-51850
X149080Y-48600
X149080Y-51850
T6
X73170Y-72600
X83330Y-72600
X83720Y-46500
X93880Y-46500
T7
X73500Y-87850
X73500Y-90390
X73500Y-92930
X73500Y-95470
X125250Y-63550
X125250Y-66090
X125250Y-68630
X125250Y-71170
X125550Y-82775
X125550Y-85315
X125550Y-87855
X125550Y-90395
X125550Y-92935
X125550Y-95475
X125550Y-98015
X125550Y-100555
X166525Y-54100
X166525Y-56640
X166525Y-59180
T8
X117120Y-51100
X119660Y-51100
X122200Y-51100
T9
X139940Y-78310
X139940Y-97810
X146290Y-75770
X146290Y-95270
X159480Y-78310
X159480Y-97810
X165830Y-75770
X165830Y-95270
T3
G00X73000Y-61100
M15
G01X72200Y-61100
M16
G05
G00X73000Y-69740
M15
G01X72200Y-69740
M16
G05
G00X77350Y-61100
M15
G01X76250Y-61100
M16
G05
G00X77350Y-69740
M15
G01X76250Y-69740
M16
G05
T7
G00X75000Y-50943
M15
G01X75000Y-52943
M16
G05
G00X77000Y-56643
M15
G01X79000Y-56643
M16
G05
G00X81000Y-50943
M15
G01X81000Y-52943
M16
G05
M30
